<?xml version="1.0" encoding="UTF-8"?>
<svg id="Layer_1" data-name="Layer 1" xmlns="http://www.w3.org/2000/svg" viewBox="0 0 24 24">
  <defs>
    <style>
      .cls-1 {
        fill: #69abec;
        fill-rule: evenodd;
        stroke-width: 0px;
      }
    </style>
  </defs>
  <path class="cls-1" d="M5.35,20.56c2.56.26,3.68.28,6.32.13,1.31-.08,2.01-.4,3.1-.25,1,.14,1.91.33,2.73.38,2.04,0,3.32-.02,3.49,1.1.11.73-.79,1.44-1.36,1.44-3.01,0-3.45-.26-5.66-.31-1.43-.03-1.98.27-3.25.32-1.1.05-1.98.06-2.87,0-.66-.05-1.39-.22-2.07-.16-1.4.12-2.65.06-2.76-.65-.23-1.48,1.42-2.07,2.33-1.98h0Z"/>
  <path class="cls-1" d="M8.17,17.45c0,1.1-1.6,1.11-2.68,1.11s-2.31-.69-2.31-1.51c0-.95-.14-1.4-.14-2.3,0-.46.03-.71.01-1.17-.05-1.6,1.36-1.45,1.38-2.85,0-.31-.21-.47-.46-.79-.22-.29-.48-.74-.56-1-.34-1.05-.41-1.2-.41-2.31,0-.87.19-1.4.19-2.27,0-1.32-.55-3.45,1.15-3.23.39.05.62,0,1.01,0l1.77-.53c1.75.11,1.44,1.42,2.15,2.29.35.44.89.34,1.26.76.39.44,1.26,1.58,1.97,2.67.35.54,1.12,1.58,1.25,1.78.12.2,1.12,1.67,1.54,1.45.24-.12.28-1.04.28-1.68,0-.14-.02-.53.04-1.01-.08-.31-.11-2.07-.16-2.43,0-.38.14-.67.14-1.13,0-1.13-.07-2.48,1.65-2.4.42.02.77.04,1.19.04,1.22,0,2.08.65,2.33,2.04.34,1.89-.01,3.8.16,5.7.2,2.12-.11,2.54-.2,4.42-.05,1.05.17,1.41.24,2.62.11,2.01-.69,3-2.43,2.88-.35-.03-.83-.18-1.38-.26-1.07.04-2.44-.34-3.76-2.66-.7-1.24-1.23-2.32-2.27-3.32-.57-.55-.73-.83-1.21-1.45-.35-.45-.41-1.28-1-1.28-.52,0-.56.6-.56,1.09,0,.36.02.92,0,1.23-.07,1-.24,1.56-.09,2.73.09.74-.42,1.11-.42,1.85,0,.26.31.55.31.92h0Z"/>
</svg>