<?xml version="1.0" encoding="UTF-8"?>
<svg id="Layer_1" data-name="Layer 1" xmlns="http://www.w3.org/2000/svg" viewBox="0 0 42.92 53.93">
  <defs>
    <style>
      .cls-1 {
        fill-rule: evenodd;
        stroke: #fff;
        stroke-miterlimit: 3.86;
        stroke-width: .02px;
      }
    </style>
  </defs>
  <path class="cls-1" d="m5.59,47.75c6.08.57,8.73.62,15,.28,3.12-.17,4.78-.88,7.36-.54,2.38.31,4.53.73,6.48.82,4.85,0,7.88-.05,8.28,2.4.26,1.59-1.88,3.13-3.22,3.13-7.14,0-8.19-.57-13.44-.68-3.39-.06-4.69.58-7.71.69-2.6.11-4.7.13-6.81-.01-1.56-.1-3.29-.47-4.92-.34-3.33.27-6.29.13-6.55-1.42-.54-3.23,3.36-4.51,5.53-4.32Z"/>
  <path class="cls-1" d="m13.53,40.11c-.02,2.61-3.66,2.64-6.14,2.64s-5.29-1.64-5.28-3.59c.02-2.25-.32-3.33-.32-5.47,0-1.09.06-1.68.03-2.78-.12-3.81,3.11-3.46,3.15-6.78,0-.73-.48-1.12-1.05-1.89-.5-.69-1.09-1.76-1.28-2.38-.77-2.5-.94-2.85-.94-5.5,0-2.08.44-3.33.44-5.41C2.14,5.8.89.74,4.78,1.26c.9.12,1.42,0,2.32,0L11.16,0c4.01.27,3.29,3.38,4.92,5.46.8,1.04,2.03.82,2.88,1.82.89,1.05,2.89,3.77,4.5,6.36.81,1.29,2.56,3.76,2.87,4.23.28.47,2.56,3.98,3.52,3.46.54-.29.63-2.48.63-4,0-.33-.05-1.27.1-2.4-.18-.73-.25-4.93-.36-5.78,0-.9.33-1.6.33-2.7,0-2.69-.16-5.9,3.77-5.72.96.04,1.77.09,2.73.09,2.8,0,4.77,1.55,5.34,4.85.78,4.49-.03,9.04.37,13.56.46,5.04-.25,6.05-.45,10.51-.12,2.5.39,3.35.55,6.23.25,4.79-1.58,7.14-5.56,6.85-.81-.06-1.91-.42-3.16-.62-2.46.09-5.59-.82-8.6-6.32-1.61-2.95-2.81-5.53-5.19-7.9-1.3-1.31-1.68-1.98-2.77-3.44-.81-1.07-.94-3.05-2.3-3.05-1.18,0-1.29,1.42-1.29,2.6,0,.86.05,2.19,0,2.92-.16,2.37-.54,3.71-.21,6.5.21,1.75-.96,2.64-.96,4.4,0,.62.72,1.3.71,2.19Z"/>
</svg>