<svg width="23" height="24" viewBox="0 0 23 24" fill="none" xmlns="http://www.w3.org/2000/svg">
<rect x="0.25" y="0.25" width="22.5" height="22.5" rx="11.25" fill="#131B25"/>
<rect x="0.25" y="0.25" width="22.5" height="22.5" rx="11.25" stroke="#2A3B51" stroke-width="0.5"/>
<mask id="mask0_1333_1894" style="mask-type:alpha" maskUnits="userSpaceOnUse" x="5" y="5" width="14" height="14">
<rect x="5" y="5" width="13.55" height="13.55" fill="#D9D9D9"/>
</mask>
<g mask="url(#mask0_1333_1894)">
<path d="M10.0811 16.2917C9.90235 16.2917 9.74238 16.24 9.60124 16.1364C9.46009 16.0329 9.35659 15.9012 9.29072 15.7412L7.99217 12.3396H5.56445V11.2104H8.78259L10.0811 14.6544L12.6782 7.80881C12.7441 7.64885 12.8476 7.51711 12.9888 7.4136C13.1299 7.3101 13.2899 7.25834 13.4686 7.25834C13.6474 7.25834 13.8074 7.3101 13.9485 7.4136C14.0897 7.51711 14.1932 7.64885 14.2591 7.80881L15.5576 11.2104H17.9853V12.3396H14.7672L13.4686 8.89564L10.8716 15.7412C10.8057 15.9012 10.7022 16.0329 10.561 16.1364C10.4199 16.24 10.2599 16.2917 10.0811 16.2917Z" fill="#97ADC9"/>
</g>
<circle cx="19" cy="20.5" r="3" fill="#FF0000"/>
</svg>
